<?xml version="1.0" standalone="no"?>
<!DOCTYPE svg PUBLIC "-//W3C//DTD SVG 20010904//EN"
 "http://www.w3.org/TR/2001/REC-SVG-20010904/DTD/svg10.dtd">
<svg version="1.0" xmlns="http://www.w3.org/2000/svg"
 width="184.000000pt" height="229.000000pt" viewBox="0 0 184.000000 229.000000"
 preserveAspectRatio="xMidYMid meet">
<metadata>
Created by potrace 1.16, written by Peter Selinger 2001-2019
</metadata>
<g transform="translate(0.000000,229.000000) scale(0.100000,-0.100000)"
fill="#ffffff" stroke="none">
<path  d="M34 2217 c-4 -10 56 -125 166 -316 l171 -300 145 -83 146 -83 -125
-3 c-95 -2 -128 -6 -137 -17 -16 -19 -9 -29 114 -172 258 -300 491 -440 808
-487 58 -9 142 -16 186 -16 l81 0 49 -82 c27 -46 66 -116 86 -156 27 -53 42
-72 54 -70 9 2 18 11 20 20 4 20 -55 140 -118 243 -41 66 -44 75 -51 171 -54
737 -676 1306 -1486 1360 -89 6 -103 5 -109 -9z m216 -57 c47 -6 132 -22 190
-36 118 -29 307 -100 312 -118 2 -6 36 -71 76 -144 54 -97 78 -132 90 -130 31
6 24 37 -31 138 -31 55 -53 100 -51 100 10 0 139 -82 196 -126 100 -75 249
-232 316 -333 106 -158 177 -328 206 -496 22 -120 25 -155 18 -155 -4 0 -26
26 -49 58 -59 81 -229 268 -297 325 -54 47 -86 56 -86 24 0 -8 53 -68 118
-133 129 -129 299 -337 282 -342 -24 -8 -250 21 -340 44 -236 60 -435 200
-668 471 l-54 62 159 3 c152 3 158 4 161 24 3 18 -25 37 -178 124 -100 57
-190 110 -201 119 -15 13 -236 389 -295 504 -14 26 -14 27 14 27 15 0 66 -5
112 -10z"/>
<path d="M1311 310 c-52 -11 -109 -44 -177 -100 -103 -87 -145 -96 -359 -79
-227 18 -240 18 -240 -5 0 -26 24 -32 201 -46 246 -21 315 -7 434 90 105 85
131 93 279 88 110 -4 134 -8 191 -32 126 -54 120 -52 130 -36 5 8 10 18 10 22
0 13 -117 67 -177 83 -73 19 -234 27 -292 15z"/>
</g>
</svg>
